<svg width="24" height="24" viewBox="0 0 24 24" fill="none" xmlns="http://www.w3.org/2000/svg">
<mask id="mask0" mask-type="alpha" maskUnits="userSpaceOnUse" x="0" y="0" width="24" height="24">
<rect width="24" height="24" fill="white"/>
<path d="M2.38216 9.88231H2.55901C3.87252 9.88231 4.94118 8.8137 4.94118 7.50014V7.05878H3.52941V7.50014C3.52941 8.03525 3.09407 8.47054 2.55901 8.47054H2.38216C1.84711 8.47054 1.41176 8.03525 1.41176 7.50014V5.20565C1.41176 4.67054 1.84711 4.23525 2.38216 4.23525H2.55901C3.09407 4.23525 3.52941 4.67054 3.52941 5.20565V5.64702H4.94118V5.20565C4.94118 3.8921 3.87252 2.82349 2.55901 2.82349H2.38216C1.06866 2.82349 0 3.8921 0 5.20565V7.50014C0 8.8137 1.06866 9.88231 2.38216 9.88231Z" fill="white"/>
<path d="M8.7347 9.88231H8.91155C10.225 9.88231 11.2937 8.8137 11.2937 7.50014V5.20565C11.2937 3.8921 10.225 2.82349 8.91155 2.82349H8.7347C7.42119 2.82349 6.35254 3.8921 6.35254 5.20565V7.50014C6.35254 8.8137 7.42119 9.88231 8.7347 9.88231ZM7.7643 5.20565C7.7643 4.67054 8.19964 4.23525 8.7347 4.23525H8.91155C9.44661 4.23525 9.88195 4.67054 9.88195 5.20565V7.50014C9.88195 8.03525 9.44661 8.47054 8.91155 8.47054H8.7347C8.19964 8.47054 7.7643 8.03525 7.7643 7.50014V5.20565Z" fill="white"/>
<path d="M17.6473 7.50014V5.20565C17.6473 3.8921 16.5787 2.82349 15.2651 2.82349H12.7061V9.88231H15.2651C16.5787 9.88231 17.6473 8.8137 17.6473 7.50014ZM14.1179 4.23525H15.2651C15.8002 4.23525 16.2355 4.67054 16.2355 5.20565V7.50014C16.2355 8.03525 15.8002 8.47054 15.2651 8.47054H14.1179V4.23525Z" fill="white"/>
<path d="M23.9998 4.23525V2.82349H19.0586V9.88231H23.9998V8.47054H20.4704V7.05878H23.0586V5.64702H20.4704V4.23525H23.9998Z" fill="white"/>
<path d="M21.1765 12.7058H19.7647V11.2941H16.9412V12.7058H15.5294V11.2941H12.7059V12.7058H11.2941V11.2941H8.47059V12.7058H7.05882V11.2941H4.23529V12.7058H2.82353V11.2941H0V14.1176H1.41176V15.5294H0V16.9411H1.41176V18.3529H0V21.1764H2.82353V19.7647H4.23529V21.1764H7.05882V19.7647H8.47059V21.1764H11.2941V19.7647H12.7059V21.1764H15.5294V19.7647H16.9412V21.1764H19.7647V19.7647H21.1765V21.1764H24V18.3529H22.5882V16.9411H24V15.5294H22.5882V14.1176H24V11.2941H21.1765V12.7058ZM7.72922 17.3192L6.73097 18.3174L5.73271 17.3192L4.73445 18.3174L3.73619 17.3192L4.73445 16.3209L3.73619 15.3226L4.73445 14.3244L5.73271 15.3226L6.73097 14.3244L7.72922 15.3226L6.73097 16.3209L7.72922 17.3192ZM14.0285 17.3192L13.0303 18.3174L12.032 17.3192L11.0337 18.3174L10.0355 17.3192L11.0337 16.3209L10.0355 15.3226L11.0337 14.3244L12.032 15.3226L13.0303 14.3244L14.0285 15.3226L13.0303 16.3209L14.0285 17.3192ZM20.2638 17.3192L19.2656 18.3174L18.2673 17.3192L17.269 18.3174L16.2708 17.3192L17.269 16.3209L16.2708 15.3226L17.269 14.3244L18.2673 15.3226L19.2656 14.3244L20.2638 15.3226L19.2656 16.3209L20.2638 17.3192Z" fill="white"/>
</mask>
<g mask="url(#mask0)">
</g>
<path d="M2.38216 9.88231H2.55901C3.87252 9.88231 4.94118 8.8137 4.94118 7.50014V7.05878H3.52941V7.50014C3.52941 8.03525 3.09407 8.47054 2.55901 8.47054H2.38216C1.84711 8.47054 1.41176 8.03525 1.41176 7.50014V5.20565C1.41176 4.67054 1.84711 4.23525 2.38216 4.23525H2.55901C3.09407 4.23525 3.52941 4.67054 3.52941 5.20565V5.64702H4.94118V5.20565C4.94118 3.8921 3.87252 2.82349 2.55901 2.82349H2.38216C1.06866 2.82349 0 3.8921 0 5.20565V7.50014C0 8.8137 1.06866 9.88231 2.38216 9.88231Z" fill="black"/>
<path d="M8.7347 9.88231H8.91155C10.225 9.88231 11.2937 8.8137 11.2937 7.50014V5.20565C11.2937 3.8921 10.225 2.82349 8.91155 2.82349H8.7347C7.42119 2.82349 6.35254 3.8921 6.35254 5.20565V7.50014C6.35254 8.8137 7.42119 9.88231 8.7347 9.88231ZM7.7643 5.20565C7.7643 4.67054 8.19964 4.23525 8.7347 4.23525H8.91155C9.44661 4.23525 9.88195 4.67054 9.88195 5.20565V7.50014C9.88195 8.03525 9.44661 8.47054 8.91155 8.47054H8.7347C8.19964 8.47054 7.7643 8.03525 7.7643 7.50014V5.20565Z" fill="black"/>
<path d="M17.6473 7.50014V5.20565C17.6473 3.8921 16.5787 2.82349 15.2651 2.82349H12.7061V9.88231H15.2651C16.5787 9.88231 17.6473 8.8137 17.6473 7.50014ZM14.1179 4.23525H15.2651C15.8002 4.23525 16.2355 4.67054 16.2355 5.20565V7.50014C16.2355 8.03525 15.8002 8.47054 15.2651 8.47054H14.1179V4.23525Z" fill="black"/>
<path d="M23.9998 4.23525V2.82349H19.0586V9.88231H23.9998V8.47054H20.4704V7.05878H23.0586V5.64702H20.4704V4.23525H23.9998Z" fill="black"/>
<path d="M21.1765 12.7058H19.7647V11.2941H16.9412V12.7058H15.5294V11.2941H12.7059V12.7058H11.2941V11.2941H8.47059V12.7058H7.05882V11.2941H4.23529V12.7058H2.82353V11.2941H0V14.1176H1.41176V15.5294H0V16.9411H1.41176V18.3529H0V21.1764H2.82353V19.7647H4.23529V21.1764H7.05882V19.7647H8.47059V21.1764H11.2941V19.7647H12.7059V21.1764H15.5294V19.7647H16.9412V21.1764H19.7647V19.7647H21.1765V21.1764H24V18.3529H22.5882V16.9411H24V15.5294H22.5882V14.1176H24V11.2941H21.1765V12.7058ZM7.72922 17.3192L6.73097 18.3174L5.73271 17.3192L4.73445 18.3174L3.73619 17.3192L4.73445 16.3209L3.73619 15.3226L4.73445 14.3244L5.73271 15.3226L6.73097 14.3244L7.72922 15.3226L6.73097 16.3209L7.72922 17.3192ZM14.0285 17.3192L13.0303 18.3174L12.032 17.3192L11.0337 18.3174L10.0355 17.3192L11.0337 16.3209L10.0355 15.3226L11.0337 14.3244L12.032 15.3226L13.0303 14.3244L14.0285 15.3226L13.0303 16.3209L14.0285 17.3192ZM20.2638 17.3192L19.2656 18.3174L18.2673 17.3192L17.269 18.3174L16.2708 17.3192L17.269 16.3209L16.2708 15.3226L17.269 14.3244L18.2673 15.3226L19.2656 14.3244L20.2638 15.3226L19.2656 16.3209L20.2638 17.3192Z" fill="black"/>
</svg>
